<svg width="240" height="48" viewBox="0 0 240 48" fill="none" xmlns="http://www.w3.org/2000/svg">
  <rect width="240" height="48" rx="24" fill="#FFF7ED"/>
  <path d="M36 13L39.367 20.1771L47 21.1459L41.5 26.3541L42.893 34L36 30.1771L29.107 34L30.5 26.3541L25 21.1459L32.633 20.1771L36 13Z" fill="#F59E0B"/>
  <path d="M80 13L83.367 20.1771L91 21.1459L85.5 26.3541L86.893 34L80 30.1771L73.107 34L74.5 26.3541L69 21.1459L76.633 20.1771L80 13Z" fill="#F59E0B"/>
  <path d="M124 13L127.367 20.1771L135 21.1459L129.5 26.3541L130.893 34L124 30.1771L117.107 34L118.5 26.3541L113 21.1459L120.633 20.1771L124 13Z" fill="#F59E0B"/>
  <path d="M168 13L171.367 20.1771L179 21.1459L173.5 26.3541L174.893 34L168 30.1771L161.107 34L162.5 26.3541L157 21.1459L164.633 20.1771L168 13Z" fill="#F59E0B"/>
  <path d="M212 13L215.367 20.1771L223 21.1459L217.5 26.3541L218.893 34L212 30.1771L205.107 34L206.5 26.3541L201 21.1459L208.633 20.1771L212 13Z" fill="#F59E0B"/>
</svg>
